<?xml version="1.0" standalone="no"?>
<!DOCTYPE svg PUBLIC "-//W3C//DTD SVG 20010904//EN"
 "http://www.w3.org/TR/2001/REC-SVG-20010904/DTD/svg10.dtd">
<svg version="1.0" xmlns="http://www.w3.org/2000/svg"
 width="2283.000000pt" height="2308.000000pt" viewBox="0 0 2283.000000 2308.000000"
 preserveAspectRatio="xMidYMid meet">

<g transform="translate(0.000000,2308.000000) scale(0.100000,-0.100000)"
fill="#000000" stroke="none">
<path d="M20036 22536 c7 -19 48 -22 42 -3 -3 6 -14 13 -26 15 -16 3 -20 -1
-16 -12z"/>
<path d="M20204 22458 c-7 -11 2 -21 21 -24 8 -1 15 6 15 15 0 18 -27 24 -36
9z"/>
<path d="M20320 21038 c0 -913 -3 -1364 -10 -1366 -17 -6 -11 -20 10 -27 11
-3 20 -14 20 -22 0 -23 81 -139 104 -149 11 -5 22 -15 24 -23 3 -8 0 -11 -7
-7 -6 4 -11 4 -11 -1 1 -14 27 -43 39 -43 6 0 11 -10 11 -23 0 -13 14 -44 30
-70 17 -26 30 -52 30 -57 0 -4 5 -10 10 -12 6 -2 12 -12 14 -23 3 -11 21 -56
41 -100 55 -120 121 -321 149 -453 55 -259 61 -332 61 -707 0 -385 -7 -469
-71 -875 -61 -388 -240 -1337 -270 -1434 -5 -15 -2 -18 15 -13 18 4 19 2 10
-14 -5 -10 -16 -19 -24 -19 -15 0 -20 -28 -16 -78 1 -15 -2 -21 -8 -17 -6 3
-11 -1 -11 -10 0 -9 5 -13 10 -10 12 7 14 -38 3 -49 -11 -11 -13 -136 -2 -136
5 0 9 -13 9 -30 0 -28 -2 -30 -38 -30 l-37 0 -17 -75 c-17 -73 -16 -105 3
-105 5 0 9 -5 9 -12 0 -9 -3 -9 -12 0 -18 18 -30 14 -23 -8 4 -12 2 -20 -5
-20 -8 0 -10 -9 -6 -25 4 -17 1 -31 -8 -40 -8 -8 -17 -38 -21 -67 -3 -29 -11
-63 -17 -76 -9 -17 -9 -25 0 -34 18 -18 15 -95 -3 -102 -8 -3 -12 -12 -9 -21
3 -8 10 -12 15 -9 5 3 9 -11 9 -31 0 -36 -1 -37 -34 -32 -28 4 -35 1 -39 -15
-6 -23 12 -32 48 -25 l25 4 -2 -916 c-3 -808 -5 -916 -18 -913 -10 1 -8 -3 5
-13 17 -14 18 -17 5 -25 -12 -7 -5 -18 36 -57 28 -26 53 -53 55 -59 2 -7 164
-193 359 -415 195 -223 438 -499 540 -615 l185 -211 33 96 c136 398 858 3349
1056 4316 303 1487 320 2576 55 3664 -206 846 -547 1514 -1061 2078 -189 207
-441 424 -724 623 -172 120 -187 128 -210 109 -16 -13 -17 -11 -12 13 5 29 -6
38 -45 38 -15 0 -18 3 -9 8 8 6 -19 27 -80 64 -86 51 -94 54 -102 37 -13 -27
-26 -24 -26 6 0 18 -5 25 -20 25 -20 0 -20 -5 -20 -1362z m230 1217 c0 -8 -7
-15 -15 -15 -8 0 -15 7 -15 15 0 8 7 15 15 15 8 0 15 -7 15 -15z m54 -26 c-3
-5 -10 -7 -15 -3 -5 3 -7 10 -3 15 3 5 10 7 15 3 5 -3 7 -10 3 -15z m-204
-2598 c0 -6 -4 -13 -10 -16 -5 -3 -10 1 -10 9 0 9 5 16 10 16 6 0 10 -4 10 -9z
m150 -301 c0 -5 -2 -10 -4 -10 -3 0 -8 5 -11 10 -3 6 -1 10 4 10 6 0 11 -4 11
-10z m90 -111 c0 -5 -4 -9 -10 -9 -5 0 -10 7 -10 16 0 8 5 12 10 9 6 -3 10
-10 10 -16z m0 -79 c0 -5 -2 -10 -4 -10 -3 0 -8 5 -11 10 -3 6 -1 10 4 10 6 0
11 -4 11 -10z m-247 -4186 c6 -6 -16 -34 -27 -34 -3 0 -6 9 -6 20 0 19 20 27
33 14z m-38 -144 c3 -5 -1 -10 -9 -10 -9 0 -16 5 -16 10 0 6 4 10 9 10 6 0 13
-4 16 -10z"/>
<path d="M8451 22376 c-14 -17 -1 -28 19 -16 11 7 12 12 4 20 -8 8 -14 7 -23
-4z"/>
<path d="M8562 22368 c3 -7 22 -14 44 -15 36 -3 38 -2 20 12 -24 18 -69 20
-64 3z"/>
<path d="M8686 22353 c-17 -17 -3 -31 30 -31 22 0 34 4 31 12 -2 6 -10 11 -18
11 -8 0 -19 4 -25 7 -6 4 -14 5 -18 1z"/>
<path d="M8777 22313 c-11 -3 -16 -11 -13 -19 7 -17 -15 -19 -32 -2 -9 9 -12
9 -12 0 0 -7 -16 -12 -40 -12 l-40 0 2 -997 3 -996 290 -74 c160 -40 418 -107
575 -149 334 -89 379 -94 465 -48 31 16 165 127 307 253 139 123 282 250 318
281 208 182 774 681 885 780 72 64 150 129 173 145 43 31 72 77 72 114 0 15
-9 23 -37 30 -21 5 -175 41 -343 81 -168 39 -761 186 -1318 326 l-1012 254
-110 0 c-63 0 -111 4 -115 10 -4 6 -3 10 2 9 26 -5 73 2 73 11 0 10 -59 12
-93 3z"/>
<path d="M20056 19961 c-3 -5 1 -14 8 -20 16 -13 32 2 21 19 -8 12 -22 13 -29
1z"/>
<path d="M20134 19879 c-10 -17 13 -36 27 -22 12 12 4 33 -11 33 -5 0 -12 -5
-16 -11z"/>
<path d="M20180 19805 c0 -10 29 -24 34 -17 3 6 -3 12 -14 15 -11 3 -20 4 -20
2z"/>
<path d="M20431 15358 c0 -9 -4 -25 -7 -35 -5 -14 -4 -15 5 -7 7 7 11 22 8 35
-2 13 -5 16 -6 7z"/>
<path d="M20287 14740 c-7 -28 -6 -32 9 -22 6 4 8 16 4 26 -6 18 -7 18 -13 -4z"/>
<path d="M20212 14420 c0 -14 2 -19 5 -12 2 6 2 18 0 25 -3 6 -5 1 -5 -13z"/>
<path d="M20220 14340 c0 -11 7 -20 15 -20 17 0 18 2 9 24 -9 23 -24 20 -24
-4z"/>
<path d="M20143 14164 c-3 -8 -1 -20 6 -27 8 -8 11 -4 11 16 0 30 -7 35 -17
11z"/>
<path d="M20133 14044 c-14 -30 -9 -44 13 -44 17 0 19 17 2 23 -10 4 -10 7 0
18 13 15 16 29 5 29 -5 0 -13 -12 -20 -26z"/>
<path d="M20100 13986 c0 -8 5 -18 10 -21 6 -3 10 1 10 9 0 8 -4 18 -10 21 -5
3 -10 -1 -10 -9z"/>
<path d="M20145 13970 c-3 -5 -1 -10 4 -10 6 0 11 5 11 10 0 6 -2 10 -4 10 -3
0 -8 -4 -11 -10z"/>
<path d="M20071 13890 c-1 -8 -4 -26 -7 -40 -5 -19 -4 -22 5 -14 7 6 11 24 8
40 -2 16 -5 22 -6 14z"/>
<path d="M20067 13776 c3 -13 0 -27 -6 -30 -16 -10 -13 -26 4 -26 11 0 15 11
15 40 0 22 -4 40 -9 40 -4 0 -6 -11 -4 -24z"/>
<path d="M19967 13503 c-4 -19 0 -37 13 -54 14 -20 16 -29 7 -38 -8 -8 -8 -11
1 -11 7 0 12 3 13 8 0 4 2 16 4 27 3 11 -3 26 -12 33 -10 7 -12 12 -5 12 7 0
12 11 12 25 0 34 -26 32 -33 -2z"/>
<path d="M11980 13196 c0 -35 14 -49 23 -23 2 7 8 8 13 3 5 -5 4 -11 -3 -13
-7 -3 -13 -13 -13 -24 0 -12 -7 -19 -20 -19 -11 0 -20 -4 -20 -10 0 -5 9 -10
20 -10 13 0 20 -7 20 -19 0 -10 10 -22 23 -26 l22 -8 -22 -4 c-15 -3 -23 -12
-23 -24 0 -15 7 -19 35 -19 l35 0 0 -80 0 -80 -35 0 c-28 0 -35 -4 -35 -20 0
-13 -7 -20 -20 -20 -11 0 -20 -4 -20 -10 0 -5 9 -10 20 -10 17 0 20 -7 20 -50
l0 -50 35 0 35 0 0 -80 0 -80 -35 0 c-28 0 -35 -4 -35 -20 0 -13 -7 -20 -20
-20 -11 0 -20 -4 -20 -10 0 -5 9 -10 20 -10 17 0 20 -7 20 -50 l0 -50 35 0 35
0 0 -80 0 -80 -35 0 c-28 0 -35 -4 -35 -20 0 -13 -7 -20 -20 -20 -11 0 -20 -4
-20 -10 0 -5 9 -10 20 -10 17 0 20 -7 20 -50 l0 -50 35 0 35 0 0 -80 0 -80
-35 0 c-28 0 -35 -4 -35 -20 0 -13 -7 -20 -20 -20 -11 0 -20 -4 -20 -10 0 -5
9 -10 20 -10 17 0 20 -7 20 -50 l0 -50 35 0 35 0 0 -80 0 -80 -35 0 c-28 0
-35 -4 -35 -20 0 -13 -7 -20 -20 -20 -11 0 -20 -4 -20 -10 0 -5 9 -10 20 -10
17 0 20 -7 20 -50 l0 -50 35 0 35 0 0 -80 0 -80 -35 0 c-28 0 -35 -4 -35 -20
0 -13 -7 -20 -20 -20 -11 0 -20 -4 -20 -10 0 -5 9 -10 20 -10 17 0 20 -7 20
-50 l0 -50 35 0 35 0 0 -80 0 -80 -35 0 c-28 0 -35 -4 -35 -20 0 -13 -7 -20
-20 -20 -11 0 -20 -4 -20 -10 0 -5 9 -10 20 -10 17 0 20 -7 20 -50 l0 -50 35
0 35 0 0 -80 0 -80 -35 0 c-28 0 -35 -4 -35 -20 0 -13 -7 -20 -20 -20 -11 0
-20 -4 -20 -10 0 -5 9 -10 20 -10 18 0 20 -7 20 -70 0 -65 -2 -70 -21 -70 -19
0 -21 -4 -16 -37 4 -20 11 -41 17 -47 8 -8 8 -3 1 17 -14 36 -14 37 4 37 8 0
15 -7 15 -15 0 -8 7 -15 15 -15 18 0 71 31 76 45 2 6 8 9 13 7 16 -5 163 113
262 212 251 252 394 532 456 891 17 103 20 148 15 320 -8 292 -48 459 -172
710 -143 289 -363 517 -677 702 -5 2 -8 -12 -8 -31z m152 -2778 c-9 -9 -12 -7
-12 12 0 19 3 21 12 12 9 -9 9 -15 0 -24z"/>
<path d="M20020 12996 c0 -9 5 -16 10 -16 6 0 10 4 10 9 0 6 -4 13 -10 16 -5
3 -10 -1 -10 -9z"/>
<path d="M11960 12950 c0 -5 9 -10 20 -10 11 0 20 5 20 10 0 6 -9 10 -20 10
-11 0 -20 -4 -20 -10z"/>
<path d="M20220 12780 c0 -11 6 -20 13 -20 8 0 14 7 14 15 0 8 -6 16 -14 19
-8 3 -13 -2 -13 -14z"/>
<path d="M11960 12630 c0 -5 9 -10 20 -10 11 0 20 5 20 10 0 6 -9 10 -20 10
-11 0 -20 -4 -20 -10z"/>
<path d="M11960 12310 c0 -5 9 -10 20 -10 11 0 20 5 20 10 0 6 -9 10 -20 10
-11 0 -20 -4 -20 -10z"/>
<path d="M11960 11990 c0 -5 9 -10 20 -10 11 0 20 5 20 10 0 6 -9 10 -20 10
-11 0 -20 -4 -20 -10z"/>
<path d="M1303 11663 c-162 -498 -870 -3412 -1063 -4373 -324 -1612 -317
-2733 27 -3890 188 -634 478 -1192 857 -1648 105 -126 356 -383 368 -376 4 3
7 2 6 -3 -3 -8 84 -93 96 -93 3 0 6 2106 6 4680 l0 4680 -30 0 c-16 0 -30 5
-30 10 0 6 14 10 30 10 l30 0 0 310 0 310 -30 0 c-16 0 -30 5 -30 10 0 6 14
10 30 10 29 0 30 2 30 45 0 41 2 45 29 52 l29 8 -74 80 c-40 44 -82 80 -91 80
-12 0 -17 6 -15 19 3 15 -1 18 -18 13 -19 -5 -21 -2 -16 18 5 19 -5 36 -45 82
-28 32 -54 59 -58 61 -3 1 -21 -42 -38 -95z m237 -174 c0 -5 -4 -9 -10 -9 -5
0 -10 7 -10 16 0 8 5 12 10 9 6 -3 10 -10 10 -16z"/>
<path d="M11960 11670 c0 -5 9 -10 20 -10 11 0 20 5 20 10 0 6 -9 10 -20 10
-11 0 -20 -4 -20 -10z"/>
<path d="M1680 11341 c0 -13 7 -18 26 -18 25 0 25 0 5 18 -11 11 -23 19 -26
19 -3 0 -5 -8 -5 -19z"/>
<path d="M11960 11350 c0 -5 9 -10 20 -10 11 0 20 5 20 10 0 6 -9 10 -20 10
-11 0 -20 -4 -20 -10z"/>
<path d="M1760 11256 c0 -9 7 -16 16 -16 9 0 14 5 12 12 -6 18 -28 21 -28 4z"/>
<path d="M11960 11030 c0 -5 9 -10 20 -10 11 0 20 5 20 10 0 6 -9 10 -20 10
-11 0 -20 -4 -20 -10z"/>
<path d="M11960 10710 c0 -5 9 -10 20 -10 11 0 20 5 20 10 0 6 -9 10 -20 10
-11 0 -20 -4 -20 -10z"/>
<path d="M11938 10303 c7 -3 16 -2 19 1 4 3 -2 6 -13 5 -11 0 -14 -3 -6 -6z"/>
<path d="M11880 10270 c0 -5 7 -7 15 -4 8 4 15 8 15 10 0 2 -7 4 -15 4 -8 0
-15 -4 -15 -10z"/>
<path d="M1972 4975 c0 -16 2 -22 5 -12 2 9 2 23 0 30 -3 6 -5 -1 -5 -18z"/>
<path d="M11611 1932 c-1 -29 2 -33 21 -30 13 2 24 11 27 23 2 11 8 23 14 27
5 3 -1 5 -16 5 -14 -1 -23 -5 -20 -9 2 -5 0 -8 -6 -8 -5 0 -12 6 -14 13 -3 6
-6 -3 -6 -21z"/>
<path d="M21600 1950 c0 -5 5 -10 11 -10 5 0 7 5 4 10 -3 6 -8 10 -11 10 -2 0
-4 -4 -4 -10z"/>
<path d="M21646 1935 c4 -8 10 -12 15 -9 11 6 2 24 -11 24 -5 0 -7 -7 -4 -15z"/>
<path d="M21613 1903 c9 -9 20 -13 24 -9 4 4 1 11 -7 16 -25 16 -35 11 -17 -7z"/>
<path d="M11580 1890 c0 -5 5 -10 10 -10 6 0 10 5 10 10 0 6 -4 10 -10 10 -5
0 -10 -4 -10 -10z"/>
<path d="M11414 1815 c-4 -8 -11 -15 -18 -15 -18 -1 -110 -90 -92 -90 9 0 16
5 16 10 0 6 5 10 11 10 5 0 7 -4 4 -10 -3 -5 -4 -10 0 -10 3 0 9 10 14 23 7
17 9 12 9 -25 l1 -47 -64 1 -63 1 -85 -74 c-47 -41 -86 -76 -86 -80 -2 -10
1340 -356 2074 -535 1270 -310 2284 -529 2955 -639 1119 -182 1992 -186 2830
-14 850 176 1525 475 2100 933 121 97 483 448 529 513 l22 33 -5059 0 c-4488
0 -5061 2 -5066 15 -3 8 -10 15 -16 15 -6 0 -13 -7 -16 -15z"/>
<path d="M1656 1226 c10 -8 21 -12 24 -10 5 6 -21 24 -34 24 -6 0 -1 -6 10
-14z"/>
<path d="M1705 1231 c-3 -5 -2 -12 3 -15 5 -3 9 1 9 9 0 17 -3 19 -12 6z"/>
<path d="M1736 1188 c3 -5 10 -6 15 -3 13 9 11 12 -6 12 -8 0 -12 -4 -9 -9z"/>
<path d="M1740 1160 c0 -5 5 -10 10 -10 6 0 10 5 10 10 0 6 -4 10 -10 10 -5 0
-10 -4 -10 -10z"/>
</g>
</svg>
